<?xml version="1.0" encoding="UTF-8" ?>
<!DOCTYPE svg PUBLIC "-//W3C//DTD SVG 1.1//EN" "http://www.w3.org/Graphics/SVG/1.1/DTD/svg11.dtd">
<svg width="40pt" height="40pt" viewBox="0 0 40 40" version="1.1" xmlns="http://www.w3.org/2000/svg">
<g id="#ffffffff">
<path fill="#ffffff" opacity="1.00" d=" M 19.31 0.00 L 20.65 0.00 C 30.86 0.14 39.85 9.11 40.00 19.32 L 40.00 20.67 C 39.85 30.86 30.90 39.83 20.71 40.00 L 19.33 40.00 C 9.14 39.85 0.16 30.90 0.00 20.71 L 0.00 19.31 C 0.15 9.12 9.12 0.16 19.31 0.00 M 14.06 11.12 C 14.20 16.69 14.20 22.26 14.09 27.84 C 17.72 27.69 21.55 28.48 25.05 27.30 C 28.92 26.03 29.17 19.58 24.87 18.76 C 27.08 17.15 27.93 13.20 25.04 11.82 C 21.59 10.40 17.69 11.29 14.06 11.12 Z" />
<path fill="#ffffff" opacity="1.00" d=" M 18.65 14.06 C 20.27 14.19 22.17 14.06 22.76 15.98 C 22.05 17.91 20.08 17.88 18.38 17.60 C 18.45 16.71 18.58 14.95 18.65 14.06 Z" />
<path fill="#ffffff" opacity="1.00" d=" M 18.50 20.65 C 20.34 20.67 24.06 20.19 23.60 23.17 C 22.76 25.28 20.31 24.71 18.54 24.85 C 18.53 23.45 18.52 22.05 18.50 20.65 Z" />
</g>
<g id="#666666fe">
<path fill="#666666" opacity="1.00" d=" M 14.06 11.12 C 17.69 11.29 21.59 10.40 25.04 11.82 C 27.93 13.20 27.08 17.15 24.87 18.76 C 29.17 19.58 28.92 26.03 25.05 27.30 C 21.55 28.48 17.72 27.69 14.09 27.84 C 14.20 22.26 14.20 16.69 14.06 11.12 M 18.65 14.06 C 18.58 14.95 18.45 16.71 18.38 17.60 C 20.08 17.88 22.05 17.91 22.76 15.98 C 22.17 14.06 20.27 14.19 18.65 14.06 M 18.50 20.65 C 18.52 22.05 18.53 23.45 18.54 24.85 C 20.31 24.71 22.76 25.28 23.60 23.17 C 24.06 20.19 20.34 20.67 18.50 20.65 Z" />
</g>
</svg>
