<?xml version="1.0" encoding="UTF-8" ?>
<!DOCTYPE svg PUBLIC "-//W3C//DTD SVG 1.1//EN" "http://www.w3.org/Graphics/SVG/1.1/DTD/svg11.dtd">
<svg width="19pt" height="20pt" viewBox="0 0 19 20" version="1.1" xmlns="http://www.w3.org/2000/svg">
<g id="#3b3b3b95">
<path fill="#3b3b3b" opacity="0.58" d=" M 0.00 0.00 L 11.79 0.00 C 12.26 6.66 11.92 13.33 11.98 20.00 L 0.00 20.00 L 0.00 0.00 M 1.02 1.00 L 0.94 1.98 C 4.38 1.98 7.91 2.41 11.25 1.34 C 7.87 0.81 4.43 0.88 1.02 1.00 M 1.06 3.26 C 0.94 7.62 0.95 11.99 0.99 16.35 C 4.15 16.42 7.32 16.42 10.49 16.32 C 10.40 11.95 10.62 7.58 10.29 3.22 C 7.22 3.29 4.14 3.32 1.06 3.26 M 1.28 18.20 C 1.17 19.61 4.78 19.62 4.77 18.22 C 3.62 17.53 2.45 17.52 1.28 18.20 M 6.46 18.30 C 6.66 19.76 10.37 19.72 10.53 18.25 C 9.38 17.47 7.59 17.49 6.46 18.30 Z" />
<path fill="#3b3b3b" opacity="0.58" d=" M 14.61 3.46 C 16.42 4.37 18.07 5.63 19.00 7.48 L 19.00 12.33 C 17.95 14.14 16.38 15.54 14.58 16.59 C 15.67 14.36 17.11 12.30 17.96 9.97 C 17.32 7.59 15.70 5.64 14.61 3.46 Z" />
<path fill="#3b3b3b" opacity="0.58" d=" M 13.82 6.22 C 15.46 6.84 17.15 8.05 17.04 10.01 C 17.20 12.12 15.23 13.26 13.80 14.36 C 15.07 11.68 15.67 8.83 13.82 6.22 Z" />
</g>
</svg>
