<?xml version="1.0" encoding="UTF-8" ?>
<!DOCTYPE svg PUBLIC "-//W3C//DTD SVG 1.1//EN" "http://www.w3.org/Graphics/SVG/1.1/DTD/svg11.dtd">
<svg width="7pt" height="9pt" viewBox="0 0 7 9" version="1.1" xmlns="http://www.w3.org/2000/svg">
<g id="#c5c5c5f6">
<path fill="#c5c5c5" opacity="0.96" d=" M 1.92 0.00 L 2.76 0.00 C 3.04 0.49 3.60 1.47 3.88 1.97 C 1.30 2.80 2.05 5.00 3.29 6.63 C 4.10 6.47 4.92 6.33 5.74 6.21 C 6.05 6.48 6.68 7.03 7.00 7.30 L 7.00 8.31 L 6.47 8.46 L 6.49 9.00 L 4.11 9.00 C 2.00 8.03 0.79 5.98 0.00 3.89 L 0.00 1.72 C 1.14 1.83 1.79 1.26 1.92 0.00 Z" />
</g>
<g id="#7d7d7d9d">
<path fill="#7d7d7d" opacity="0.62" d=" M 6.47 8.46 L 7.00 8.31 L 7.00 9.00 L 6.49 9.00 L 6.47 8.46 Z" />
</g>
</svg>
