<?xml version="1.0" encoding="UTF-8" ?>
<!DOCTYPE svg PUBLIC "-//W3C//DTD SVG 1.1//EN" "http://www.w3.org/Graphics/SVG/1.1/DTD/svg11.dtd">
<svg width="22pt" height="38pt" viewBox="0 0 22 38" version="1.1" xmlns="http://www.w3.org/2000/svg">
<g id="#ffffffff">
<path fill="#ffffff" opacity="1.00" d=" M 3.20 0.00 L 3.58 0.00 C 3.54 0.15 3.46 0.46 3.41 0.62 C 10.05 6.14 15.63 12.81 22.00 18.64 L 22.00 19.25 C 15.87 25.46 9.28 31.30 3.67 38.00 L 3.25 38.00 C 3.25 37.47 3.25 36.42 3.25 35.89 C 1.81 35.54 0.73 34.69 0.00 33.35 L 0.00 32.62 C 4.50 28.02 9.53 23.82 13.47 18.75 C 9.17 14.04 4.38 9.75 0.00 5.08 L 0.00 4.27 C 0.88 3.31 1.92 2.56 3.10 2.01 C 3.12 1.50 3.17 0.50 3.20 0.00 Z" />
</g>
</svg>
