<?xml version="1.0" encoding="UTF-8" ?>
<!DOCTYPE svg PUBLIC "-//W3C//DTD SVG 1.1//EN" "http://www.w3.org/Graphics/SVG/1.1/DTD/svg11.dtd">
<svg width="40pt" height="40pt" viewBox="0 0 40 40" version="1.1" xmlns="http://www.w3.org/2000/svg">
<g id="#ccccccff">
<path fill="#cccccc" opacity="1.00" d=" M 19.30 0.00 L 20.65 0.00 C 30.84 0.14 39.82 9.08 40.00 19.27 L 40.00 20.73 C 39.81 30.89 30.90 39.81 20.73 40.00 L 19.28 40.00 C 9.10 39.82 0.17 30.88 0.00 20.70 L 0.00 19.25 C 0.20 9.08 9.13 0.17 19.30 0.00 M 12.27 11.31 C 12.03 11.53 11.53 11.97 11.29 12.19 C 10.79 16.12 11.18 20.11 10.97 24.06 C 11.11 25.62 10.57 27.78 12.25 28.69 C 16.11 29.30 20.07 28.81 23.97 28.99 C 25.59 28.81 27.72 29.40 28.80 27.81 C 29.24 22.88 28.93 17.91 28.91 12.97 C 28.85 11.04 26.45 10.93 25.02 11.01 C 20.78 11.22 16.48 10.74 12.27 11.31 Z" />
<path fill="#cccccc" opacity="1.00" d=" M 23.21 13.21 C 24.43 13.20 25.66 13.18 26.88 13.14 C 26.93 13.94 27.04 15.55 27.09 16.36 C 25.87 16.47 24.64 16.57 23.42 16.68 C 23.38 15.52 23.31 14.37 23.21 13.21 Z" />
<path fill="#cccccc" opacity="1.00" d=" M 18.10 17.00 C 19.90 15.81 22.61 16.63 23.39 18.67 C 24.78 21.19 21.61 24.34 19.01 23.34 C 16.11 22.69 15.46 18.44 18.10 17.00 Z" />
<path fill="#cccccc" opacity="1.00" d=" M 13.11 26.78 C 13.59 23.98 11.66 19.83 14.36 18.09 C 14.65 20.07 14.43 22.49 16.07 23.95 C 18.50 26.36 23.24 25.90 24.92 22.81 C 25.61 21.40 25.44 19.77 25.64 18.25 L 26.88 18.82 C 27.12 21.47 26.94 24.14 26.90 26.79 C 22.31 27.05 17.70 27.05 13.11 26.78 Z" />
</g>
<g id="#666666fe">
<path fill="#666666" opacity="1.00" d=" M 12.27 11.31 C 16.48 10.74 20.78 11.22 25.02 11.01 C 26.45 10.93 28.85 11.04 28.91 12.97 C 28.93 17.91 29.24 22.88 28.80 27.81 C 27.72 29.40 25.59 28.81 23.97 28.99 C 20.07 28.81 16.11 29.30 12.25 28.69 C 10.57 27.78 11.11 25.62 10.97 24.06 C 11.18 20.11 10.79 16.12 11.29 12.19 C 11.53 11.97 12.03 11.53 12.27 11.31 M 23.21 13.21 C 23.31 14.37 23.38 15.52 23.42 16.68 C 24.64 16.57 25.87 16.47 27.09 16.36 C 27.04 15.55 26.93 13.94 26.88 13.14 C 25.66 13.18 24.43 13.20 23.21 13.21 M 18.10 17.00 C 15.46 18.44 16.11 22.69 19.01 23.34 C 21.61 24.34 24.78 21.19 23.39 18.67 C 22.61 16.63 19.90 15.81 18.10 17.00 M 13.11 26.78 C 17.70 27.05 22.31 27.05 26.90 26.79 C 26.94 24.14 27.12 21.47 26.88 18.82 L 25.64 18.25 C 25.44 19.77 25.61 21.40 24.92 22.81 C 23.24 25.90 18.50 26.36 16.07 23.95 C 14.43 22.49 14.65 20.07 14.36 18.09 C 11.66 19.83 13.59 23.98 13.11 26.78 Z" />
</g>
</svg>
