<?xml version="1.0" encoding="UTF-8" ?>
<!DOCTYPE svg PUBLIC "-//W3C//DTD SVG 1.1//EN" "http://www.w3.org/Graphics/SVG/1.1/DTD/svg11.dtd">
<svg width="40pt" height="40pt" viewBox="0 0 40 40" version="1.1" xmlns="http://www.w3.org/2000/svg">
<g id="#ffffffff">
<path fill="#ffffff" opacity="1.00" d=" M 19.24 0.00 L 20.70 0.00 C 30.88 0.17 39.82 9.09 40.00 19.27 L 40.00 20.72 C 39.82 30.88 30.91 39.81 20.74 40.00 L 19.26 40.00 C 9.10 39.81 0.19 30.90 0.00 20.75 L 0.00 19.25 C 0.20 9.10 9.09 0.21 19.24 0.00 M 12.29 11.31 C 12.04 11.54 11.53 11.99 11.28 12.22 C 10.82 16.48 11.12 20.79 10.99 25.07 C 10.93 26.49 11.05 28.77 12.95 28.83 C 17.62 29.09 22.33 29.07 27.00 28.84 C 28.48 28.88 29.16 27.35 28.97 26.06 C 28.95 21.43 29.20 16.77 28.77 12.16 C 28.50 11.94 27.95 11.50 27.68 11.27 C 22.59 10.83 17.38 10.91 12.29 11.31 Z" />
<path fill="#ffffff" opacity="1.00" d=" M 23.23 13.22 C 24.47 13.16 25.71 13.12 26.95 13.12 C 26.93 14.27 26.88 15.43 26.82 16.59 C 25.70 16.62 24.58 16.62 23.46 16.60 C 23.36 15.47 23.28 14.35 23.23 13.22 Z" />
<path fill="#ffffff" opacity="1.00" d=" M 18.19 16.92 C 20.90 15.12 25.00 18.45 23.36 21.35 C 22.36 23.91 18.43 24.23 17.02 21.88 C 15.75 20.28 16.55 17.91 18.19 16.92 Z" />
<path fill="#ffffff" opacity="1.00" d=" M 13.11 26.79 C 13.63 24.03 11.53 19.79 14.43 18.13 C 14.51 20.86 14.89 24.39 18.09 25.16 C 22.28 26.86 26.46 22.85 25.57 18.59 L 27.00 18.61 C 26.98 21.34 26.95 24.06 26.92 26.79 C 22.32 27.04 17.71 27.03 13.11 26.79 Z" />
</g>
<g id="#666666fe">
<path fill="#666666" opacity="1.00" d=" M 12.29 11.31 C 17.38 10.91 22.59 10.83 27.68 11.27 C 27.95 11.50 28.50 11.94 28.77 12.16 C 29.20 16.77 28.95 21.43 28.97 26.06 C 29.16 27.35 28.48 28.88 27.00 28.84 C 22.33 29.07 17.62 29.09 12.95 28.83 C 11.05 28.77 10.93 26.49 10.99 25.07 C 11.12 20.79 10.82 16.48 11.28 12.22 C 11.53 11.99 12.04 11.54 12.29 11.31 M 23.23 13.22 C 23.28 14.35 23.36 15.47 23.46 16.60 C 24.58 16.62 25.70 16.62 26.82 16.59 C 26.88 15.43 26.93 14.27 26.95 13.12 C 25.71 13.12 24.47 13.16 23.23 13.22 M 18.19 16.92 C 16.55 17.91 15.75 20.28 17.02 21.88 C 18.43 24.23 22.36 23.91 23.36 21.35 C 25.00 18.45 20.90 15.12 18.19 16.92 M 13.11 26.79 C 17.71 27.03 22.32 27.04 26.92 26.79 C 26.95 24.06 26.98 21.34 27.00 18.61 L 25.57 18.59 C 26.46 22.85 22.28 26.86 18.09 25.16 C 14.89 24.39 14.51 20.86 14.43 18.13 C 11.53 19.79 13.63 24.03 13.11 26.79 Z" />
</g>
</svg>
