<?xml version="1.0" encoding="UTF-8" ?>
<!DOCTYPE svg PUBLIC "-//W3C//DTD SVG 1.1//EN" "http://www.w3.org/Graphics/SVG/1.1/DTD/svg11.dtd">
<svg width="40pt" height="40pt" viewBox="0 0 40 40" version="1.1" xmlns="http://www.w3.org/2000/svg">
<g id="#ccccccff">
<path fill="#cccccc" opacity="1.00" d=" M 19.23 0.00 L 20.69 0.00 C 30.88 0.17 39.82 9.10 40.00 19.28 L 40.00 20.75 C 39.80 30.91 30.90 39.81 20.74 40.00 L 19.25 40.00 C 9.09 39.80 0.19 30.89 0.00 20.73 L 0.00 19.26 C 0.20 9.11 9.08 0.21 19.23 0.00 M 14.09 11.09 C 14.18 16.68 14.18 22.27 14.12 27.85 C 17.79 27.73 21.66 28.46 25.20 27.25 C 28.93 25.74 28.94 20.12 25.18 18.64 C 26.94 16.77 27.91 13.16 25.03 11.80 C 21.57 10.47 17.71 11.23 14.09 11.09 Z" />
<path fill="#cccccc" opacity="1.00" d=" M 18.55 13.88 C 20.08 14.28 22.16 14.08 22.73 15.98 C 22.10 17.73 20.07 17.65 18.62 18.10 C 18.77 16.69 18.74 15.28 18.55 13.88 Z" />
<path fill="#cccccc" opacity="1.00" d=" M 18.49 20.53 C 20.17 20.92 22.63 20.20 23.63 22.06 C 23.99 25.04 20.55 24.73 18.61 25.02 C 18.57 23.52 18.53 22.02 18.49 20.53 Z" />
</g>
<g id="#666666ff">
<path fill="#666666" opacity="1.00" d=" M 14.09 11.09 C 17.71 11.23 21.57 10.47 25.03 11.80 C 27.91 13.16 26.94 16.77 25.18 18.64 C 28.94 20.12 28.93 25.74 25.20 27.25 C 21.66 28.46 17.79 27.73 14.12 27.85 C 14.18 22.27 14.18 16.68 14.09 11.09 M 18.55 13.88 C 18.74 15.28 18.77 16.69 18.62 18.10 C 20.07 17.65 22.10 17.73 22.73 15.98 C 22.16 14.08 20.08 14.28 18.55 13.88 M 18.49 20.53 C 18.53 22.02 18.57 23.52 18.61 25.02 C 20.55 24.73 23.99 25.04 23.63 22.06 C 22.63 20.20 20.17 20.92 18.49 20.53 Z" />
</g>
</svg>
