<?xml version="1.0" encoding="UTF-8" ?>
<!DOCTYPE svg PUBLIC "-//W3C//DTD SVG 1.1//EN" "http://www.w3.org/Graphics/SVG/1.1/DTD/svg11.dtd">
<svg width="22pt" height="38pt" viewBox="0 0 22 38" version="1.1" xmlns="http://www.w3.org/2000/svg">
<g id="#f2f2f2ff">
<path fill="#f2f2f2" opacity="1.00" d=" M 18.40 0.00 L 18.78 0.00 C 18.81 0.50 18.88 1.49 18.92 1.99 C 20.11 2.56 21.14 3.34 22.00 4.34 L 22.00 6.59 L 21.77 5.14 C 17.49 9.89 12.83 14.27 8.30 18.76 C 12.61 23.64 17.40 28.07 22.00 32.66 L 22.00 33.34 C 21.24 34.94 17.95 36.07 18.80 38.00 L 18.52 38.00 C 12.68 31.43 6.18 25.46 0.00 19.21 L 0.00 18.60 C 6.39 12.82 11.97 6.16 18.56 0.61 C 18.52 0.46 18.44 0.15 18.40 0.00 Z" />
</g>
</svg>
