<?xml version="1.0" encoding="UTF-8" ?>
<!DOCTYPE svg PUBLIC "-//W3C//DTD SVG 1.1//EN" "http://www.w3.org/Graphics/SVG/1.1/DTD/svg11.dtd">
<svg width="8pt" height="8pt" viewBox="0 0 8 8" version="1.1" xmlns="http://www.w3.org/2000/svg">
<g id="#1122112b">
<path fill="#112211" opacity="0.17" d=" M 0.00 0.00 L 3.14 0.00 C 2.10 1.06 1.05 2.10 0.00 3.15 L 0.00 0.00 Z" />
<path fill="#112211" opacity="0.17" d=" M 4.78 0.00 L 8.00 0.00 L 8.00 3.08 C 6.93 2.05 5.85 1.03 4.78 0.00 Z" />
<path fill="#112211" opacity="0.17" d=" M 0.00 4.86 C 1.06 5.89 2.10 6.93 3.12 8.00 L 0.00 8.00 L 0.00 4.86 Z" />
<path fill="#112211" opacity="0.17" d=" M 4.90 8.00 C 5.92 6.92 6.96 5.87 8.00 4.83 L 8.00 8.00 L 4.90 8.00 Z" />
</g>
<g id="#66cc66ff">
<path fill="#66cc66" opacity="1.00" d=" M 3.14 0.00 L 4.78 0.00 C 5.85 1.03 6.93 2.05 8.00 3.08 L 8.00 4.83 C 6.96 5.87 5.92 6.92 4.90 8.00 L 3.12 8.00 C 2.10 6.93 1.06 5.89 0.00 4.86 L 0.00 3.15 C 1.05 2.10 2.10 1.06 3.14 0.00 Z" />
</g>
</svg>
